<?xml version="1.0" encoding="UTF-8"?>
<!DOCTYPE svg PUBLIC "-//W3C//DTD SVG 1.1//EN" "http://www.w3.org/Graphics/SVG/1.1/DTD/svg11.dtd">
<svg xmlns="http://www.w3.org/2000/svg" style="background-color: none;" xmlns:xlink="http://www.w3.org/1999/xlink" version="1.1" width="242px" height="322px" viewBox="-0.5 -0.5 242 322" content="">
	<defs/>
	<g>
		<path d="M 0 219.67 C 0 197.76 53.73 180 120 180 C 151.83 180 182.35 184.18 204.85 191.62 C 227.36 199.06 240 209.15 240 219.67 L 240 280.33 C 240 302.24 186.27 320 120 320 C 88.17 320 57.65 315.82 35.15 308.38 C 12.64 300.94 0 290.85 0 280.33 Z" fill="#ffd438" stroke="none" pointer-events="all"/>
		<path d="M 240 219.67 C 240 241.57 186.27 259.33 120 259.33 C 88.17 259.33 57.65 255.15 35.15 247.72 C 12.64 240.28 0 230.19 0 219.67" fill="none" stroke="none" pointer-events="all"/>
		<ellipse cx="120" cy="220" rx="120" ry="40" fill-opacity="0.3" fill="#000000" stroke="none" pointer-events="all"/>
		<path d="M 0 129.67 C 0 107.76 53.73 90 120 90 C 151.83 90 182.35 94.18 204.85 101.62 C 227.36 109.06 240 119.15 240 129.67 L 240 190.33 C 240 212.24 186.27 230 120 230 C 88.17 230 57.65 225.82 35.15 218.38 C 12.64 210.94 0 200.85 0 190.33 Z" fill="#ffd438" stroke="none" pointer-events="all"/>
		<path d="M 240 129.67 C 240 151.57 186.27 169.33 120 169.33 C 88.17 169.33 57.65 165.15 35.15 157.72 C 12.64 150.28 0 140.19 0 129.67" fill="none" stroke="none" pointer-events="all"/>
		<ellipse cx="120" cy="130" rx="120" ry="40" fill-opacity="0.2" fill="#000000" stroke="none" pointer-events="all"/>
		<path d="M 0 39.67 C 0 17.76 53.73 0 120 0 C 151.83 0 182.35 4.18 204.85 11.62 C 227.36 19.06 240 29.15 240 39.67 L 240 100.33 C 240 122.24 186.27 140 120 140 C 88.17 140 57.65 135.82 35.15 128.38 C 12.64 120.94 0 110.85 0 100.33 Z" fill="#ffd438" stroke="none" pointer-events="all"/>
		<path d="M 240 39.67 C 240 61.57 186.27 79.33 120 79.33 C 88.17 79.33 57.65 75.15 35.15 67.72 C 12.64 60.28 0 50.19 0 39.67" fill="none" stroke="none" pointer-events="all"/>
		<ellipse cx="120" cy="40" rx="120" ry="40" fill-opacity="0.2" fill="#ffffff" stroke="none" pointer-events="all"/>
	</g>
</svg>